<svg id="Шар_1" data-name="Шар 1" xmlns="http://www.w3.org/2000/svg" viewBox="0 0 16.48 16.17" width="16" height="16"><defs><clipPath id="clip-path"><path class="cls-1" d="M-16.31-2257.5H1001.6V737.52H-16.31z"/></clipPath><clipPath id="clip-path-2"><path class="cls-1" d="M-16.31-2257.5H1001.6V737.52H-16.31z"/></clipPath><clipPath id="clip-path-3"><path class="cls-1" d="M-16.47 0h1017.94v452.68H-16.47z"/></clipPath><style>.cls-1{fill:none}.cls-7{fill:#465154}</style></defs><g clip-path="url(#clip-path)"><path fill="#fff" d="M-16.31-1778.67h1017.76V737.52H-16.31z"/><g clip-path="url(#clip-path-2)"><g clip-path="url(#clip-path-3)" opacity=".23"><path class="cls-7" d="M0 8.37A8.45 8.45 0 01-8.51 0h.57A7.9 7.9 0 000 7.81z"/><path class="cls-7" d="M-7.94 16.18h-.57A8.45 8.45 0 010 7.81v.56a7.9 7.9 0 00-8 7.81m8-7.81v-.56A7.89 7.89 0 007.94 0h.58A8.46 8.46 0 010 8.37"/><path class="cls-7" d="M16.48 8.37A8.45 8.45 0 018 0h.57a7.9 7.9 0 008 7.81z"/><path class="cls-7" d="M8.52 16.18H8a8.45 8.45 0 018.53-8.37v.56a7.9 7.9 0 00-8 7.81"/><path class="cls-7" d="M8.52 16.18H8a7.9 7.9 0 00-8-7.81v-.56a8.46 8.46 0 018.53 8.37"/><path class="cls-7" d="M2.91 8.37v-.56a5 5 0 005-4.94h.58a5.56 5.56 0 01-5.61 5.5"/><path class="cls-7" d="M13.55 8.37a5.57 5.57 0 01-5.61-5.5h.58a5 5 0 005 4.94z"/><path class="cls-7" d="M8.52 13.31H8a5.56 5.56 0 015.6-5.5v.56a5 5 0 00-5 4.94"/><path class="cls-7" d="M8.52 13.31H8a5 5 0 00-5-4.94v-.56a5.56 5.56 0 015.61 5.5m4.83-5.68v.96l1.42-.48-1.42-.48zm-10.53.96v-.96l-1.42.48 1.42.48z"/><path class="cls-7" d="M8.66 13.15h-.97l.49 1.39.48-1.39zm-.97-10.2h.97l-.48-1.39-.49 1.39zm8.76 5.42v-.56A7.89 7.89 0 0024.4 0h.6a8.46 8.46 0 01-8.53 8.37"/><path class="cls-7" d="M25 16.18h-.6a7.9 7.9 0 00-7.95-7.81v-.56A8.46 8.46 0 0125 16.18"/></g></g></g></svg>