<svg id="Шар_1" data-name="Шар 1" xmlns="http://www.w3.org/2000/svg" viewBox="0 0 1017.91 197.99"><defs><clipPath id="clip-path"><path class="cls-1" d="M0-1782.67h1017.91v2995.02H0z"/></clipPath><clipPath id="clip-path-2"><path class="cls-1" d="M0 0h1017.85v198.66H0z"/></clipPath><clipPath id="clip-path-3"><path class="cls-1" d="M488.05-190.21h578.08v578.08H488.05z"/></clipPath><style>.cls-1{fill:none}.cls-3{fill:#fff}</style></defs><g clip-path="url(#clip-path)"><path class="cls-3" d="M0-1303.84h1017.76v2516.19H0z"/><path fill="#465154" d="M0-.12h1017.85v198.21H0z"/><g clip-path="url(#clip-path-2)"><g clip-path="url(#clip-path-3)" opacity=".1"><path class="cls-3" d="M943.36-64.79v-.13h-.11a232.7 232.7 0 00-166.13-69.69c-128.73 0-233.47 104.73-233.47 233.47s104.71 233.43 233.44 233.43a232.59 232.59 0 00163.28-66.89l.57-.16.12-.47a232.85 232.85 0 002.3-329.56m-15.1 320l-18.06 5-1.49-1.47-13.21-13.5 5.13-19.74 20-5.53 7.43 7.33 7.32 7.48-4.75 18.26c-.77.77-1.63 1.44-2.41 2.2M932.94-53l4.66 18.4-8.28 8.46-6.53 6.36-20-5.65-5-19.74 10.68-10.91 4.11-4 18.71 5.28c.58.59 1.09 1.25 1.67 1.84m-90.6 231.44l45.3 45.31-2.76 10.61-48.42-49.46c1.89-2.21 3.9-4.32 5.88-6.46m53.3 34.91l-44.27-44.28c3.39-3.27 6.86-6.46 10.46-9.51l48.64 49.7zm-110.4 27.34h-.08a136.93 136.93 0 01132.4-132.17 233.06 233.06 0 00-132.34 132.17m-139.08 16.85l-2.22 2.17-18.85-5.26c-.46-.44-1-.84-1.43-1.29l-4.86-18.93 7.07-7.22 7.72-7.57 20 5.59 5.06 19.72zm56.41-88.69l-44 44.05-14.8-4.14 48.38-49.42c3.6 3 7.06 6.25 10.46 9.51m-36 54.39l45-45c2 2.14 4 4.24 5.87 6.46l-48.18 49.22zm-30-114.72A136.91 136.91 0 01769 240.73h-.07a233.06 233.06 0 00-132.31-132.17M632.29 94v13zM711 23.49l-46.79-46.73 2.86-10.56L716.83 17c-1.9 2.22-3.9 4.34-5.88 6.47M656.05-13l45.77 45.77c-3.41 3.25-6.83 6.48-10.45 9.51L641.13-9zM769-40A136.93 136.93 0 01636.62 92.43 233 233 0 00769-40m83.08 72.53l45.83-45.83 14.72 4.16-50.1 51.17c-3.61-3-7-6.24-10.45-9.5m37.72-56.12L843 23.25c-2-2.14-4-4.26-5.88-6.47l50-51.06zm27.73 116A136.93 136.93 0 01785.15-40 233 233 0 00917.56 92.43m-43.66 8.06a153.21 153.21 0 00-96.81 96.81 153.21 153.21 0 00-96.81-96.81 153.17 153.17 0 0096.81-96.8 153.17 153.17 0 0096.81 96.8M873 50l65.56-67 13.61-13.26A216.24 216.24 0 01994.53 92.3 214.92 214.92 0 01873 50m26.28-115.3l-16 15.61.15.61L829 6.51a215 215 0 01-43.77-125 216.33 216.33 0 01123.12 44zM725 6.78l-54-55.16.2-.73L646-74.5l-.25.07A216.33 216.33 0 01769-118.54 215 215 0 01725 6.78M623.06-55l18.49-4.9 15 15.28-5.25 19.4-20.09 5.33-14.7-14.71 5.07-18.73c.51-.53 1-1.11 1.48-1.64M681 50.23A215 215 0 01559.64 92.3a216.22 216.22 0 0142.49-122.59zm.81 101.13l-65.13 66.53L604.27 230l.11.41-.24.24a216.37 216.37 0 01-44.33-121.95 215.07 215.07 0 01122 42.67M655.33 266.8l17.93-17.55-.15-.6 52.5-53.65a215 215 0 0143.2 121.17A216.22 216.22 0 01648.27 274zm173-71.52l52.68 53.82-.14.52 18.57 18.3 6.16 6.3a216.28 216.28 0 01-120.27 42 214.89 214.89 0 0143-120.9m109 22.88l-65.2-66.6a215 215 0 01122.2-42.87 216.27 216.27 0 01-44.43 122.09l.06-.24z"/><path class="cls-3" d="M777.09-190.22c-159.38 0-289 129.67-289 289.05s129.66 289 289 289 289-129.67 289-289-129.66-289-289-289m0 562.4c-150.73 0-273.35-122.62-273.35-273.35s122.62-273.41 273.35-273.41S1050.44-51.9 1050.44 98.83 927.81 372.18 777.09 372.18"/><path class="cls-3" d="M778.49-161.11C636-161.11 520.13-45.22 520.13 97.24S636 355.59 778.49 355.59s258.34-115.9 258.34-258.35-115.89-258.35-258.34-258.35m0 510.53c-139.06 0-252.19-113.13-252.19-252.18s113.13-252.18 252.19-252.18 252.17 113.13 252.17 252.18-113.13 252.18-252.17 252.18"/></g></g></g></svg>