<svg id="Шар_1" data-name="Шар 1" xmlns="http://www.w3.org/2000/svg" xmlns:xlink="http://www.w3.org/1999/xlink" viewBox="0 0 1017.91 197.99"><defs><style>.cls-1{fill:none;}.cls-2{clip-path:url(#clip-path);}.cls-3{fill:#fff;}.cls-4{fill:#465154;}.cls-5{clip-path:url(#clip-path-2);}.cls-6{opacity:0.1;}.cls-7{clip-path:url(#clip-path-3);}</style><clipPath id="clip-path"><rect class="cls-1" y="-1782.67" width="1017.91" height="2995.02"/></clipPath><clipPath id="clip-path-2"><rect class="cls-1" width="1017.85" height="198.66"/></clipPath><clipPath id="clip-path-3"><rect class="cls-1" x="488.05" y="-190.21" width="578.08" height="578.08"/></clipPath></defs><g class="cls-2"><rect class="cls-3" y="-1303.84" width="1017.76" height="2516.19"/><rect class="cls-4" y="-0.12" width="1017.85" height="198.21"/><g class="cls-5"><g class="cls-6"><g class="cls-7"><path class="cls-3" d="M943.36-64.79l0-.13-.11,0a232.7,232.7,0,0,0-166.13-69.69c-128.73,0-233.47,104.73-233.47,233.47S648.36,332.29,777.09,332.29A232.59,232.59,0,0,0,940.37,265.4l.57-.16.12-.47a232.85,232.85,0,0,0,2.3-329.56m-15.1,320-18.06,5-1.49-1.47-13.21-13.5,5.13-19.74,20-5.53,7.43,7.33,7.32,7.48-4.75,18.26c-.77.77-1.63,1.44-2.41,2.2M932.94-53,937.6-34.6l-8.28,8.46-6.53,6.36-20-5.65-5-19.74,10.68-10.91,4.11-4,18.71,5.28c.58.59,1.09,1.25,1.67,1.84m-90.6,231.44,45.3,45.31-2.76,10.61-48.42-49.46c1.89-2.21,3.9-4.32,5.88-6.46m53.3,34.91-44.27-44.28c3.39-3.27,6.86-6.46,10.46-9.51l48.64,49.7Zm-110.4,27.34h-.08a136.93,136.93,0,0,1,132.4-132.17A233.06,233.06,0,0,0,785.24,240.73M646.16,257.58l-2.22,2.17-18.85-5.26c-.46-.44-1-.84-1.43-1.29l-4.86-18.93,7.07-7.22,7.72-7.57,20,5.59,5.06,19.72Zm56.41-88.69-44,44.05-14.8-4.14,48.38-49.42c3.6,3,7.06,6.25,10.46,9.51m-36,54.39,45-45c2,2.14,4,4.24,5.87,6.46l-48.18,49.22Zm-30-114.72A136.91,136.91,0,0,1,769,240.73h-.07A233.06,233.06,0,0,0,636.62,108.56M632.29,94h0v13h0ZM711,23.49,664.21-23.24l2.86-10.56L716.83,17c-1.9,2.22-3.9,4.34-5.88,6.47M656.05-13l45.77,45.77c-3.41,3.25-6.83,6.48-10.45,9.51L641.13-9ZM769-40A136.93,136.93,0,0,1,636.62,92.43,233,233,0,0,0,769-40m83.08,72.53,45.83-45.83,14.72,4.16-50.1,51.17c-3.61-3-7-6.24-10.45-9.5m37.72-56.12L843,23.25c-2-2.14-4-4.26-5.88-6.47l50-51.06Zm27.73,116A136.93,136.93,0,0,1,785.15-40,233,233,0,0,0,917.56,92.43m-43.66,8.06a153.21,153.21,0,0,0-96.81,96.81,153.21,153.21,0,0,0-96.81-96.81,153.17,153.17,0,0,0,96.81-96.8,153.17,153.17,0,0,0,96.81,96.8M873,50l65.56-67,13.61-13.26A216.24,216.24,0,0,1,994.53,92.3,214.92,214.92,0,0,1,873,50m26.28-115.3-16,15.61.15.61L829,6.51a215,215,0,0,1-43.77-125,216.33,216.33,0,0,1,123.12,44ZM725,6.78,671-48.38l.2-.73L646-74.5l-.25.07A216.33,216.33,0,0,1,769-118.54,215,215,0,0,1,725,6.78M623.06-55l18.49-4.9,15,15.28-5.25,19.4-20.09,5.33L616.51-34.6l5.07-18.73c.51-.53,1-1.11,1.48-1.64M681,50.23A215,215,0,0,1,559.64,92.3,216.22,216.22,0,0,1,602.13-30.29Zm.81,101.13-65.13,66.53L604.27,230l.11.41-.24.24a216.37,216.37,0,0,1-44.33-121.95,215.07,215.07,0,0,1,122,42.67M655.33,266.8l17.93-17.55-.15-.6L725.61,195a215,215,0,0,1,43.2,121.17A216.22,216.22,0,0,1,648.27,274Zm173-71.52,52.68,53.82-.14.52,18.57,18.3,6.16,6.3a216.28,216.28,0,0,1-120.27,42,214.89,214.89,0,0,1,43-120.9m109,22.88-65.2-66.6a215,215,0,0,1,122.2-42.87A216.27,216.27,0,0,1,949.9,230.82l.06-.24Z"/><path class="cls-3" d="M777.09-190.22c-159.38,0-289,129.67-289,289.05s129.66,289,289,289,289-129.67,289-289-129.66-289-289-289m0,562.4c-150.73,0-273.35-122.62-273.35-273.35S626.36-174.53,777.09-174.53,1050.44-51.9,1050.44,98.83,927.81,372.18,777.09,372.18"/><path class="cls-3" d="M778.49-161.11C636-161.11,520.13-45.22,520.13,97.24S636,355.59,778.49,355.59s258.34-115.9,258.34-258.35S920.94-161.11,778.49-161.11m0,510.53c-139.06,0-252.19-113.13-252.19-252.18S639.43-154.94,778.49-154.94,1030.66-41.81,1030.66,97.24,917.53,349.42,778.49,349.42"/></g></g></g></g></svg>